M48
INCH,TZ
T1C0.032
T2C0.032
T3C0.035
T4C0.040
T5C0.040
T6C0.045
T7C0.050
T8C0.059
T9C0.067
T10C0.120
T11C0.126
%
G90
G05
T1
X62039Y-42500
X63961Y-42500
X83539Y-45000
X85461Y-45000
T2
X35000Y-52000
X35000Y-54000
X36000Y-32000
X36000Y-38000
X37000Y-32000
X37000Y-38000
X37000Y-55000
X38000Y-32000
X38000Y-38000
X38000Y-55000
X38500Y-50000
X38500Y-51000
X38500Y-52000
X38500Y-53000
X39000Y-32000
X39000Y-38000
X40000Y-32000
X40000Y-38000
X41000Y-32000
X41000Y-38000
X41500Y-50000
X41500Y-51000
X41500Y-52000
X41500Y-53000
X42000Y-32000
X42000Y-38000
X43000Y-32000
X43000Y-38000
X43000Y-51500
X43000Y-53000
X44000Y-32000
X44000Y-38000
X45000Y-32000
X45000Y-38000
X45000Y-47500
X45500Y-40500
X45500Y-42500
X46000Y-32000
X46000Y-38000
X47000Y-32000
X47000Y-38000
X47000Y-47500
X47000Y-51500
X47000Y-53000
X47000Y-54000
X48000Y-32000
X48000Y-38000
X48000Y-42500
X48000Y-44000
X48500Y-52000
X49000Y-32000
X49000Y-38000
X49500Y-52000
X50500Y-50500
X51000Y-54000
X51500Y-50500
X52000Y-33000
X52000Y-39000
X52000Y-42500
X52000Y-44000
X53000Y-33000
X53000Y-39000
X54000Y-33000
X54000Y-39000
X54500Y-52000
X54500Y-54000
X55000Y-33000
X55000Y-39000
X55000Y-40000
X56000Y-33000
X56000Y-39000
X56000Y-55000
X57000Y-33000
X57000Y-39000
X57000Y-55000
X58000Y-33000
X58000Y-39000
X58000Y-50000
X58000Y-51000
X58000Y-52000
X58000Y-53000
X59000Y-33000
X59000Y-39000
X59000Y-40000
X60000Y-32000
X60000Y-33000
X60000Y-39000
X60000Y-40000
X60000Y-44000
X60000Y-45000
X60000Y-47000
X61000Y-33000
X61000Y-39000
X61000Y-50000
X61000Y-51000
X61000Y-52000
X61000Y-53000
X62000Y-32000
X62000Y-33000
X62000Y-39000
X62000Y-40000
X62000Y-41000
X63000Y-33000
X63000Y-39000
X63000Y-51500
X63000Y-53000
X63500Y-48500
X64000Y-33000
X64000Y-39000
X64000Y-40000
X64000Y-41000
X65000Y-33000
X65000Y-39000
X65500Y-48500
X66000Y-33000
X66000Y-39000
X66000Y-41500
X66000Y-43500
X66000Y-56500
X67000Y-33000
X67000Y-39000
X67000Y-49500
X67000Y-51500
X67000Y-53000
X67500Y-40500
X67500Y-43500
X68000Y-33000
X68000Y-39000
X68500Y-40500
X68500Y-43500
X69000Y-33000
X69000Y-39000
X69000Y-47000
X69000Y-52000
X69000Y-53000
X69500Y-40500
X69500Y-43500
X70000Y-33000
X70000Y-39000
X70000Y-56500
X70500Y-40500
X70500Y-43500
X71000Y-33000
X71000Y-39000
X71000Y-47000
X71000Y-49500
X73000Y-45000
X73000Y-49000
X74000Y-45000
X74000Y-49000
X75000Y-45000
X75000Y-49000
X75500Y-38500
X75500Y-39500
X75500Y-42500
X76000Y-43750
X76000Y-46000
X76000Y-48000
X76000Y-49500
X76500Y-39500
X76500Y-42500
X76500Y-45000
X77500Y-39500
X77500Y-42500
X78000Y-43750
X78500Y-39500
X78500Y-42500
X78500Y-45000
X78500Y-53000
X78500Y-57000
X79500Y-38500
X79500Y-39500
X79500Y-42500
X79500Y-43500
X79500Y-45500
X80000Y-49500
X80500Y-39500
X80500Y-42500
X80500Y-43500
X80500Y-45500
X81500Y-39500
X81500Y-42500
X81500Y-46500
X82500Y-39500
X82500Y-42500
X83500Y-39500
X83500Y-42500
X83500Y-46500
X83500Y-47500
X84500Y-35500
X84500Y-39500
X84500Y-42500
X85500Y-39500
X85500Y-42500
X85500Y-47500
X86500Y-39500
X86500Y-42500
X87500Y-38000
X87500Y-39500
X87500Y-42500
X87500Y-44000
X87500Y-46000
X88500Y-35500
X88500Y-38000
X88500Y-39500
X88500Y-42500
X88750Y-44000
X88750Y-46000
T3
X72250Y-52750
X72750Y-51750
X73250Y-52750
X73750Y-51750
X74250Y-52750
X74750Y-51750
X75250Y-52750
X75750Y-51750
T4
X29500Y-27250
X29500Y-32500
X29500Y-38000
X29500Y-43500
X29500Y-52750
X31500Y-27250
X31500Y-32500
X31500Y-38000
X31500Y-43500
X31500Y-52750
X33500Y-51000
X33500Y-55000
X34250Y-20000
X34250Y-21000
X34250Y-23000
X34250Y-24000
X34250Y-25000
X37750Y-20000
X37750Y-21000
X37750Y-23000
X37750Y-24000
X37750Y-25000
X41250Y-20000
X41250Y-21000
X41250Y-23000
X41250Y-24000
X41250Y-25000
X44750Y-20000
X44750Y-21000
X44750Y-23000
X44750Y-24000
X44750Y-25000
X48250Y-20000
X48250Y-21000
X48250Y-23000
X48250Y-24000
X48250Y-25000
X51750Y-20000
X51750Y-21000
X51750Y-23000
X51750Y-24000
X51750Y-25000
X53000Y-51000
X53000Y-55000
X54750Y-42250
X54750Y-43250
X55250Y-20000
X55250Y-21000
X55250Y-23000
X55250Y-24000
X55250Y-25000
X55750Y-42250
X55750Y-43250
X56750Y-42250
X56750Y-43250
X58750Y-20000
X58750Y-21000
X58750Y-23000
X58750Y-24000
X58750Y-25000
X62250Y-20000
X62250Y-21000
X62250Y-23000
X62250Y-24000
X62250Y-25000
X65000Y-45500
X65750Y-20000
X65750Y-21000
X65750Y-23000
X65750Y-24000
X65750Y-25000
X66000Y-45500
X67000Y-45500
X69250Y-20000
X69250Y-21000
X69250Y-23000
X69250Y-24000
X69250Y-25000
X72750Y-20000
X72750Y-21000
X72750Y-23000
X72750Y-24000
X72750Y-25000
X76250Y-20000
X76250Y-21000
X76250Y-23000
X76250Y-24000
X76250Y-25000
X79750Y-20000
X79750Y-21000
X79750Y-23000
X79750Y-24000
X79750Y-25000
X83250Y-20000
X83250Y-21000
X83250Y-23000
X83250Y-24000
X83250Y-25000
X86750Y-20000
X86750Y-21000
X86750Y-23000
X86750Y-24000
X86750Y-25000
T5
X71510Y-57179
X72510Y-56581
X75490Y-57179
X76490Y-56581
T6
X72000Y-42000
X72000Y-48000
T7
X39500Y-55000
X46500Y-55000
X59000Y-55000
X66000Y-55000
T8
X29500Y-48000
X32500Y-48000
T9
X71000Y-54049
X77000Y-54049
T10
X29969Y-20969
X29969Y-56402
X89024Y-20969
X89024Y-56402
T11
X71750Y-55250
X76250Y-55250
T0
M30
